<svg width="25" height="24" viewBox="0 0 25 24" fill="none" xmlns="http://www.w3.org/2000/svg">
<circle cx="12.8779" cy="8.30373" r="1.056" stroke="#342E34" stroke-width="1.056"/>
<path d="M4.6194 11.3137C4.58177 10.8457 4.76866 10.3876 5.12295 10.0796L11.9082 4.1793C12.4645 3.69558 13.2922 3.69558 13.8484 4.1793L20.6337 10.0796C20.988 10.3876 21.1749 10.8457 21.1373 11.3137L20.563 18.4546C20.5012 19.2227 19.8599 19.8145 19.0894 19.8145H6.66732C5.89677 19.8145 5.25544 19.2227 5.19367 18.4546L4.6194 11.3137Z" stroke="#342E34" stroke-width="1.2672"/>
<line x1="7.80157" y1="19.8934" x2="7.80157" y2="21.9257" stroke="#342E34" stroke-width="1.2672" stroke-linecap="round"/>
<line x1="17.6063" y1="19.8934" x2="17.6063" y2="21.9257" stroke="#342E34" stroke-width="1.2672" stroke-linecap="round"/>
<path d="M15.3461 19.2622V14.7751C15.3461 13.6087 14.4005 12.6631 13.2341 12.6631H12.5554C11.3889 12.6631 10.4434 13.6087 10.4434 14.7751V19.2622" stroke="#342E34" stroke-width="1.2672"/>
</svg>
