<svg width="25" height="24" viewBox="0 0 25 24" fill="none" xmlns="http://www.w3.org/2000/svg">
<g clip-path="url(#clip0_8827_1575)">
<path d="M15.7256 6.75C16.7611 6.75 17.6006 5.91053 17.6006 4.875C17.6006 3.83947 16.7611 3 15.7256 3C14.6901 3 13.8506 3.83947 13.8506 4.875C13.8506 5.91053 14.6901 6.75 15.7256 6.75Z" stroke="#342E34" stroke-width="1.34" stroke-linecap="round" stroke-linejoin="round"/>
<path d="M1.10059 18.7501L7.95371 7.11948C8.01988 7.0067 8.11439 6.91318 8.22786 6.84819C8.34134 6.78321 8.46982 6.74902 8.60059 6.74902C8.73135 6.74902 8.85984 6.78321 8.97331 6.84819C9.08678 6.91318 9.18129 7.0067 9.24746 7.11948L16.1006 18.7501H1.10059Z" stroke="#342E34" stroke-width="1.34" stroke-linecap="round" stroke-linejoin="round"/>
<path d="M5.07129 12H12.1307" stroke="#342E34" stroke-width="1.34" stroke-linecap="round" stroke-linejoin="round"/>
<path d="M14.0957 15.3476L17.1951 10.1173C17.2615 10.0054 17.3559 9.91265 17.469 9.84826C17.582 9.78386 17.7099 9.75 17.8401 9.75C17.9702 9.75 18.0981 9.78386 18.2112 9.84826C18.3243 9.91265 18.4187 10.0054 18.4851 10.1173L23.601 18.7498H16.101" stroke="#342E34" stroke-width="1.34" stroke-linecap="round" stroke-linejoin="round"/>
</g>
<defs>
<clipPath id="clip0_8827_1575">
<rect width="24" height="24" fill="white" transform="translate(0.350586)"/>
</clipPath>
</defs>
</svg>
