<svg width="109" height="24" viewBox="0 0 109 24" fill="none" xmlns="http://www.w3.org/2000/svg">
<path fill-rule="evenodd" clip-rule="evenodd" d="M3.96963 6.03964C5.79214 3.5882 8.71061 1.99999 12 1.99999C15.3087 1.99999 18.242 3.60694 20.0623 6.08296C19.9849 6.16264 19.9143 6.2452 19.8505 6.32767C19.517 6.75945 19.2661 7.31563 19.0651 7.88042C18.6604 9.01635 18.3516 10.5001 18.0658 11.8895L18.0404 12.0145C17.7552 13.4013 17.4901 14.6911 17.1696 15.6486C17.0256 16.0788 16.889 16.3829 16.7679 16.5777C16.6416 16.3813 16.4982 16.0735 16.3465 15.6372C16.0037 14.6522 15.7154 13.3125 15.4097 11.882L15.3998 11.8351C15.1061 10.4611 14.7945 9.00316 14.4061 7.88721C14.2109 7.32663 13.9714 6.77602 13.6583 6.34823C13.3509 5.9284 12.8392 5.4546 12.0909 5.4546C11.3473 5.4546 10.8333 5.92326 10.5215 6.33838C10.2022 6.76338 9.95334 7.31173 9.7483 7.87259C9.33541 9.00201 8.99783 10.4794 8.68366 11.8707L8.65121 12.0145C8.34011 13.3927 8.04929 14.6812 7.71917 15.6406C7.59313 16.0069 7.47422 16.2856 7.36658 16.4847C7.26138 16.2866 7.14544 16.0097 7.02283 15.6465C6.70613 14.7076 6.42869 13.4551 6.13072 12.1099L6.07857 11.8745C5.76982 10.4823 5.43487 9.00223 5.01609 7.86928C4.80802 7.30631 4.55353 6.75524 4.22419 6.32823C4.14961 6.23158 4.06486 6.13347 3.96963 6.03964ZM2.86659 7.92195C2.95339 8.09336 3.04521 8.3058 3.14016 8.56267C3.50264 9.54333 3.80975 10.8815 4.12599 12.3075L4.18752 12.5853C4.47546 13.8865 4.77498 15.24 5.12776 16.2856C5.3154 16.8418 5.54199 17.3865 5.83342 17.8099C6.10901 18.2103 6.60341 18.7274 7.36363 18.7274C8.12166 18.7274 8.61724 18.2127 8.89471 17.8142C9.18863 17.3918 9.41893 16.8477 9.61037 16.2912C9.97734 15.2248 10.2898 13.8396 10.5888 12.5139L10.6345 12.3112C10.9567 10.8844 11.2669 9.54355 11.6267 8.55933C11.7934 8.10333 11.9495 7.78566 12.0853 7.58858C12.2141 7.78396 12.3612 8.09658 12.5173 8.54474C12.8601 9.52973 13.1482 10.8695 13.4539 12.3L13.4639 12.3468C13.7575 13.7208 14.0691 15.1788 14.4576 16.2946C14.6527 16.8554 14.8922 17.406 15.2054 17.8337C15.5128 18.2536 16.0244 18.7274 16.7726 18.7274C17.5248 18.7274 18.0345 18.2493 18.3383 17.8257C18.6468 17.3958 18.8787 16.8434 19.0661 16.2835C19.4262 15.208 19.7127 13.8126 19.9855 12.4852L20.0248 12.2924C20.3187 10.8636 20.6008 9.52921 20.9492 8.55149C21.0248 8.33881 21.0991 8.15746 21.17 8.00513C21.7039 9.2287 22 10.5798 22 12C22 17.5228 17.5229 22.0001 12 22.0001C6.47715 22.0001 1.99999 17.5228 1.99999 12C1.99999 10.5475 2.30967 9.16735 2.86659 7.92195ZM12 0C5.37259 0 0 5.37259 0 12C0 18.6274 5.37259 24 12 24C18.6276 24 23.9998 18.6274 23.9998 12C23.9998 5.37259 18.6276 0 12 0ZM12.2272 7.42244C12.2281 7.42173 12.2286 7.4213 12.2286 7.42117C12.2286 7.42092 12.2262 7.42229 12.2216 7.426C12.2241 7.42452 12.226 7.42331 12.2272 7.42244ZM11.9522 7.42253C11.9475 7.41968 11.9452 7.41773 11.9452 7.41749C11.9452 7.41724 11.9476 7.41866 11.9522 7.42253ZM16.6205 16.7675C16.6205 16.7675 16.6227 16.7653 16.627 16.7625C16.6227 16.7662 16.6205 16.7678 16.6205 16.7675ZM16.9113 16.7594C16.916 16.7622 16.9185 16.7641 16.9185 16.7644C16.9185 16.7647 16.916 16.7631 16.9113 16.7594ZM7.15869 16.7854C7.15866 16.7851 7.16154 16.7823 7.1673 16.7783C7.1616 16.7836 7.15869 16.7858 7.15869 16.7854ZM7.56372 16.7802C7.56945 16.7842 7.57229 16.787 7.57229 16.7873C7.57226 16.7876 7.56938 16.7858 7.56372 16.7802Z" fill="#FF8F50"/>
<path d="M30.6268 19.1044L27.7168 9.15039H30.2658L31.9916 16.3148L33.9983 9.15039H36.8479L38.855 16.3148L40.6009 9.15039H43.1496L40.2197 19.1044H37.5506L35.4231 11.659L33.2959 19.1044H30.6268Z" fill="#622F60"/>
<path d="M46.8888 19.3449C46.0325 19.3449 45.3302 19.2108 44.7817 18.9433C44.2333 18.6624 43.8252 18.2945 43.5576 17.8396C43.29 17.3846 43.1562 16.883 43.1562 16.3345C43.1562 15.4114 43.5173 14.6621 44.2398 14.0868C44.9623 13.5115 46.0462 13.2239 47.4911 13.2239H50.0196V12.983C50.0196 12.3007 49.8255 11.799 49.4377 11.4779C49.0497 11.1568 48.5679 10.9963 47.9928 10.9963C47.471 10.9963 47.0161 11.1234 46.628 11.3776C46.24 11.6184 45.9991 11.9796 45.9056 12.4613H43.3969C43.4641 11.7388 43.7047 11.11 44.1193 10.5748C44.5476 10.0397 45.0961 9.63163 45.765 9.35069C46.4342 9.05634 47.1833 8.90918 48.0126 8.90918C49.4309 8.90918 50.5479 9.2637 51.3643 9.9728C52.1803 10.6819 52.5884 11.6853 52.5884 12.983V19.104H50.4008L50.1602 17.4986C49.8657 18.0337 49.4511 18.475 48.9159 18.8231C48.3941 19.1709 47.7184 19.3449 46.8888 19.3449ZM47.471 17.3379C48.2068 17.3379 48.7753 17.097 49.1767 16.6154C49.5913 16.1339 49.8524 15.5383 49.9596 14.8293H47.772C47.0895 14.8293 46.6014 14.9565 46.3069 15.2106C46.0127 15.4515 45.8653 15.7526 45.8653 16.1137C45.8653 16.5018 46.0127 16.8028 46.3069 17.0167C46.6014 17.2307 46.9891 17.3379 47.471 17.3379Z" fill="#622F60"/>
<path d="M56.6318 19.1044L52.9795 9.15039H55.6684L58.1972 16.6762L60.7258 9.15039H63.415L59.7425 19.1044H56.6318Z" fill="#622F60"/>
<path d="M68.5792 19.3449C67.5759 19.3449 66.6862 19.1306 65.9101 18.7026C65.1344 18.2744 64.5256 17.6723 64.084 16.8963C63.6424 16.1205 63.4219 15.224 63.4219 14.2072C63.4219 13.1771 63.6359 12.2606 64.0638 11.4579C64.5054 10.6551 65.1074 10.033 65.8702 9.59149C66.6459 9.13661 67.5558 8.90918 68.5994 8.90918C69.5761 8.90918 70.4392 9.12323 71.1883 9.55136C71.9374 9.97949 72.5196 10.5682 72.9342 11.3174C73.3622 12.0532 73.5765 12.876 73.5765 13.7858C73.5765 13.933 73.5697 14.0868 73.5564 14.2474C73.5564 14.4079 73.5496 14.5752 73.5362 14.7491H65.9705C66.0241 15.525 66.2917 16.1339 66.7732 16.5755C67.2681 17.0168 67.8636 17.2376 68.5594 17.2376C69.0809 17.2376 69.516 17.1239 69.8638 16.8963C70.2249 16.6557 70.4924 16.3478 70.6665 15.9731H73.2755C73.0881 16.6021 72.7735 17.1775 72.3322 17.6993C71.9039 18.2075 71.3688 18.6088 70.7265 18.9033C70.0979 19.1975 69.3819 19.3449 68.5792 19.3449ZM68.5994 10.9963C67.9707 10.9963 67.4155 11.1769 66.9336 11.5381C66.4521 11.886 66.1442 12.4211 66.0105 13.1436H70.9675C70.9272 12.488 70.6866 11.9663 70.245 11.5783C69.8034 11.1903 69.255 10.9963 68.5994 10.9963Z" fill="#622F60"/>
<path d="M74.9336 19.1046V4.65527H77.5024V19.1046H74.9336Z" fill="#622F60"/>
<path d="M84.1613 19.3449C83.1579 19.3449 82.2682 19.1306 81.4922 18.7026C80.7164 18.2744 80.1076 17.6723 79.666 16.8963C79.2244 16.1205 79.0039 15.224 79.0039 14.2072C79.0039 13.1771 79.2179 12.2606 79.6459 11.4579C80.0875 10.6551 80.6895 10.033 81.4522 9.59149C82.2283 9.13661 83.1378 8.90918 84.1814 8.90918C85.1581 8.90918 86.0212 9.12323 86.7703 9.55136C87.5194 9.97949 88.1016 10.5682 88.5163 11.3174C88.9442 12.0532 89.1585 12.876 89.1585 13.7858C89.1585 13.933 89.1517 14.0868 89.1384 14.2474C89.1384 14.4079 89.1316 14.5752 89.1183 14.7491H81.5525C81.6061 15.525 81.8737 16.1339 82.3552 16.5755C82.8501 17.0168 83.4456 17.2376 84.1415 17.2376C84.6629 17.2376 85.098 17.1239 85.4458 16.8963C85.8069 16.6557 86.0745 16.3478 86.2485 15.9731H88.8575C88.6702 16.6021 88.3555 17.1775 87.9142 17.6993C87.486 18.2075 86.9508 18.6088 86.3086 18.9033C85.6799 19.1975 84.9643 19.3449 84.1613 19.3449ZM84.1814 10.9963C83.5528 10.9963 82.9975 11.1769 82.5156 11.5381C82.0341 11.886 81.7263 12.4211 81.5925 13.1436H86.5495C86.5092 12.488 86.2686 11.9663 85.827 11.5783C85.3854 11.1903 84.837 10.9963 84.1814 10.9963Z" fill="#622F60"/>
<path d="M94.6306 19.3449C93.7477 19.3449 92.9717 19.2043 92.3028 18.9234C91.6336 18.6289 91.0984 18.2276 90.6971 17.7191C90.2957 17.2109 90.0551 16.6222 89.9746 15.9533H92.5635C92.6437 16.341 92.858 16.6758 93.2058 16.9567C93.5669 17.2242 94.0286 17.358 94.5904 17.358C95.1524 17.358 95.5606 17.2444 95.8145 17.0167C96.0821 16.7894 96.2158 16.5284 96.2158 16.2342C96.2158 15.8059 96.0288 15.5182 95.6541 15.3712C95.2794 15.2106 94.7576 15.0568 94.0887 14.9096C93.6607 14.816 93.2259 14.7023 92.7843 14.5685C92.3427 14.4347 91.9349 14.2674 91.5602 14.0668C91.1988 13.8527 90.9046 13.5851 90.677 13.264C90.4497 12.9295 90.336 12.5215 90.336 12.0398C90.336 11.1568 90.6838 10.4143 91.3796 9.81226C92.0885 9.21019 93.0785 8.90918 94.3497 8.90918C95.5271 8.90918 96.4636 9.18343 97.1591 9.73196C97.8683 10.2805 98.2898 11.0364 98.4235 11.9997H95.9954C95.848 11.2639 95.2927 10.8959 94.3296 10.8959C93.8481 10.8959 93.4733 10.9896 93.2058 11.1769C92.9515 11.3642 92.8246 11.5983 92.8246 11.8793C92.8246 12.1736 93.0184 12.4078 93.4065 12.5817C93.7945 12.7556 94.3095 12.9162 94.9517 13.0633C95.6473 13.2239 96.2827 13.4045 96.8581 13.6052C97.4468 13.7925 97.9151 14.0801 98.2631 14.4681C98.6109 14.8427 98.7846 15.3846 98.7846 16.0936C98.7983 16.7092 98.6375 17.2642 98.3031 17.7594C97.9686 18.2542 97.4871 18.6422 96.8581 18.9234C96.2295 19.2043 95.4869 19.3449 94.6306 19.3449Z" fill="#622F60"/>
<path d="M104.372 19.3449C103.489 19.3449 102.713 19.2043 102.044 18.9234C101.375 18.6289 100.84 18.2276 100.438 17.7191C100.037 17.2109 99.796 16.6222 99.7158 15.9533H102.305C102.385 16.341 102.599 16.6758 102.947 16.9567C103.308 17.2242 103.769 17.358 104.332 17.358C104.893 17.358 105.301 17.2444 105.556 17.0167C105.823 16.7894 105.957 16.5284 105.957 16.2342C105.957 15.8059 105.77 15.5182 105.395 15.3712C105.021 15.2106 104.499 15.0568 103.83 14.9096C103.402 14.816 102.967 14.7023 102.525 14.5685C102.084 14.4347 101.676 14.2674 101.301 14.0668C100.94 13.8527 100.645 13.5851 100.418 13.264C100.191 12.9295 100.077 12.5215 100.077 12.0398C100.077 11.1568 100.425 10.4143 101.121 9.81226C101.83 9.21019 102.82 8.90918 104.091 8.90918C105.268 8.90918 106.204 9.18343 106.9 9.73196C107.609 10.2805 108.031 11.0364 108.164 11.9997H105.736C105.589 11.2639 105.034 10.8959 104.071 10.8959C103.589 10.8959 103.214 10.9896 102.947 11.1769C102.692 11.3642 102.565 11.5983 102.565 11.8793C102.565 12.1736 102.759 12.4078 103.147 12.5817C103.535 12.7556 104.05 12.9162 104.693 13.0633C105.388 13.2239 106.024 13.4045 106.599 13.6052C107.188 13.7925 107.656 14.0801 108.004 14.4681C108.352 14.8427 108.526 15.3846 108.526 16.0936C108.539 16.7092 108.379 17.2642 108.044 17.7594C107.71 18.2542 107.228 18.6422 106.599 18.9234C105.97 19.2043 105.228 19.3449 104.372 19.3449Z" fill="#622F60"/>
</svg>
