<svg width="24" height="24" viewBox="0 0 24 24" fill="none" xmlns="http://www.w3.org/2000/svg">
<path fill-rule="evenodd" clip-rule="evenodd" d="M3.96963 6.03964C5.79214 3.5882 8.71061 1.99999 12 1.99999C15.3087 1.99999 18.242 3.60694 20.0623 6.08296C19.9849 6.16264 19.9143 6.2452 19.8505 6.32767C19.517 6.75945 19.2661 7.31563 19.0651 7.88042C18.6604 9.01635 18.3516 10.5001 18.0658 11.8895L18.0404 12.0145C17.7552 13.4013 17.4901 14.6911 17.1696 15.6486C17.0256 16.0788 16.889 16.3829 16.7679 16.5777C16.6416 16.3813 16.4982 16.0735 16.3465 15.6372C16.0037 14.6522 15.7154 13.3125 15.4097 11.882L15.3998 11.8351C15.1061 10.4611 14.7945 9.00316 14.4061 7.88721C14.2109 7.32663 13.9714 6.77602 13.6583 6.34823C13.3509 5.9284 12.8392 5.4546 12.0909 5.4546C11.3473 5.4546 10.8333 5.92326 10.5215 6.33838C10.2022 6.76338 9.95334 7.31173 9.7483 7.87259C9.33541 9.00201 8.99783 10.4794 8.68366 11.8707L8.65121 12.0145C8.34011 13.3927 8.04929 14.6812 7.71917 15.6406C7.59313 16.0069 7.47422 16.2856 7.36658 16.4847C7.26138 16.2866 7.14544 16.0097 7.02283 15.6465C6.70613 14.7076 6.42869 13.4551 6.13072 12.1099L6.07857 11.8745C5.76982 10.4823 5.43487 9.00223 5.01609 7.86928C4.80802 7.30631 4.55353 6.75524 4.22419 6.32823C4.14961 6.23158 4.06486 6.13347 3.96963 6.03964ZM2.86659 7.92195C2.95339 8.09336 3.04521 8.3058 3.14016 8.56267C3.50264 9.54333 3.80975 10.8815 4.12599 12.3075L4.18752 12.5853C4.47546 13.8865 4.77498 15.24 5.12776 16.2856C5.3154 16.8418 5.54199 17.3865 5.83342 17.8099C6.10901 18.2103 6.60341 18.7274 7.36363 18.7274C8.12166 18.7274 8.61724 18.2127 8.89471 17.8142C9.18863 17.3918 9.41893 16.8477 9.61037 16.2912C9.97734 15.2248 10.2898 13.8396 10.5888 12.5139L10.6345 12.3112C10.9567 10.8844 11.2669 9.54355 11.6267 8.55933C11.7934 8.10333 11.9495 7.78566 12.0853 7.58858C12.2141 7.78396 12.3612 8.09658 12.5173 8.54474C12.8601 9.52973 13.1482 10.8695 13.4539 12.3L13.4639 12.3468C13.7575 13.7208 14.0691 15.1788 14.4576 16.2946C14.6527 16.8554 14.8922 17.406 15.2054 17.8337C15.5128 18.2536 16.0244 18.7274 16.7726 18.7274C17.5248 18.7274 18.0345 18.2493 18.3383 17.8257C18.6468 17.3958 18.8787 16.8434 19.0661 16.2835C19.4262 15.208 19.7127 13.8126 19.9855 12.4852L20.0248 12.2924C20.3187 10.8636 20.6008 9.52921 20.9492 8.55149C21.0248 8.33881 21.0991 8.15746 21.17 8.00513C21.7039 9.2287 22 10.5798 22 12C22 17.5228 17.5229 22.0001 12 22.0001C6.47715 22.0001 1.99999 17.5228 1.99999 12C1.99999 10.5475 2.30967 9.16735 2.86659 7.92195ZM12 0C5.37259 0 0 5.37259 0 12C0 18.6274 5.37259 24 12 24C18.6276 24 23.9998 18.6274 23.9998 12C23.9998 5.37259 18.6276 0 12 0ZM12.2272 7.42244C12.2281 7.42173 12.2286 7.4213 12.2286 7.42117C12.2286 7.42092 12.2262 7.42229 12.2216 7.426C12.2241 7.42452 12.226 7.42331 12.2272 7.42244ZM11.9522 7.42253C11.9475 7.41968 11.9452 7.41773 11.9452 7.41749C11.9452 7.41724 11.9476 7.41866 11.9522 7.42253ZM16.6205 16.7675C16.6205 16.7675 16.6227 16.7653 16.627 16.7625C16.6227 16.7662 16.6205 16.7678 16.6205 16.7675ZM16.9113 16.7594C16.916 16.7622 16.9185 16.7641 16.9185 16.7644C16.9185 16.7647 16.916 16.7631 16.9113 16.7594ZM7.15869 16.7854C7.15866 16.7851 7.16154 16.7823 7.1673 16.7783C7.1616 16.7836 7.15869 16.7858 7.15869 16.7854ZM7.56372 16.7802C7.56945 16.7842 7.57229 16.787 7.57229 16.7873C7.57226 16.7876 7.56938 16.7858 7.56372 16.7802Z" fill="#FF8F50"/>
</svg>
