<svg width="25" height="24" viewBox="0 0 25 24" fill="none" xmlns="http://www.w3.org/2000/svg">
<path d="M11.8232 20.3493C16.7808 20.3493 20.7998 16.3527 20.7998 11.4227C20.7998 6.49267 16.7808 2.49609 11.8232 2.49609C6.86561 2.49609 2.84668 6.49267 2.84668 11.4227C2.84668 16.3527 6.86561 20.3493 11.8232 20.3493Z" stroke="#342E34" stroke-width="1.2672" stroke-linecap="round" stroke-linejoin="round"/>
<path d="M3.53906 14.8585H5.95582C6.59679 14.8585 7.2115 14.6053 7.66473 14.1546C8.11796 13.7039 8.37258 13.0926 8.37258 12.4552V10.3952C8.37258 9.7578 8.6272 9.1465 9.08043 8.6958C9.53366 8.24509 10.1484 7.99188 10.7893 7.99188C11.4303 7.99188 12.045 7.73868 12.4982 7.28797C12.9515 6.83726 13.2061 6.22597 13.2061 5.58857V2.59473" stroke="#342E34" stroke-width="1.2672" stroke-linecap="round" stroke-linejoin="round"/>
<path d="M20.7967 11.2827C20.1053 10.9259 19.3384 10.7377 18.5595 10.7334H15.6179C14.977 10.7334 14.3623 10.9866 13.909 11.4373C13.4558 11.888 13.2012 12.4993 13.2012 13.1367C13.2012 13.7741 13.4558 14.3854 13.909 14.8361C14.3623 15.2868 14.977 15.54 15.6179 15.54C16.0758 15.54 16.5148 15.7209 16.8386 16.0428C17.1623 16.3648 17.3442 16.8014 17.3442 17.2567V18.4515" stroke="#342E34" stroke-width="1.2672" stroke-linecap="round" stroke-linejoin="round"/>
<path d="M11.265 19.7887C11.4164 19.449 11.4398 19.0374 11.2646 18.6727C11.0895 18.3081 10.8958 17.787 10.4967 17.611C10.0975 17.435 9.65451 17.4011 9.26516 17.5169C8.87581 17.6326 8.57199 17.8885 8.42052 18.2282C8.31233 18.4708 8.09532 18.6535 7.81721 18.7362C7.5391 18.8189 7.22269 18.7947 6.93757 18.669L6.18936 18.339" stroke="#342E34" stroke-width="1.2672" stroke-linecap="round" stroke-linejoin="round"/>
</svg>
